<svg xmlns="http://www.w3.org/2000/svg" viewBox="0 0 64 64">
  <defs>
    <linearGradient id="g" x1="0" y1="1" x2="0" y2="0">
      <stop offset="0" stop-color="#ea580c"/>
      <stop offset="0.5" stop-color="#f97316"/>
      <stop offset="1" stop-color="#fcd34d"/>
    </linearGradient>
  </defs>
  <path fill="url(#g)" d="M32 4c4 8 14 14 14 26 0 10-7 18-14 18s-14-7-14-17c0-6 3-9 3-9s-1 7 3 7 4-6 4-10c0-7-4-11 4-15z"/>
  <path fill="#fbbf24" d="M30 30c-3 3-5 7-5 11 0 5 4 9 9 9s8-4 8-9c0-3-2-6-4-6s-1 4-3 4-2-3-2-5-1-4-3-4z"/>
</svg>
